# xmcd
#
# Track frame offsets: 
#        182
#        20432
#        37245
#        54310
#        77900
#        98182
#        114685
#        131830
#        148935
#        165932
#        182395
#        197845
#        215040
#        229937
#        247145
#        263197
#        281187
#        298575
#        315245
#        333867
#
# Disc length: 4690 seconds
#
# Revision: 7
# Processed by: cddbd v1.5.2PL0 Copyright (c) Steve Scherf et al.
# Submitted via: ExactAudioCopyFreeDBPlugin 1.0
#
DISCID=32125014
DTITLE=Verschiedene Interpreten - Just the best vol. 11
DYEAR=1997
DGENRE=Pop
TTITLE0=Toni Braxton - Unbreak my heart
TTITLE1=Tic Tac Toe - Warum?
TTITLE2=Nana - Darkman
TTITLE3=Eros Ramazzotti - L'aurora
TTITLE4=Snoop Doggy Dogg - Snoop's upside ya head
TTITLE5=Republica - Ready to go
TTITLE6=Real McCoy - One more time
TTITLE7=Red 5 - I love you… Stop!
TTITLE8=OMC - On the run
TTITLE9=Heart Attack - I was made for loving you
TTITLE10=Sash! - Encore une fois
TTITLE11=Painted Love - You can do magic
TTITLE12=Sequential One - My love is hot
TTITLE13=Wolf - Oh shit, Frau Schmidt
TTITLE14=Charly Lownoise and Mental Theo - Party
TTITLE15=Kaleef - Golden brown
TTITLE16=DJ Quicksilver - Bellissima
TTITLE17=C-Block - So strong out
TTITLE18=Toten Hosen - Alles aus Liebe
TTITLE19=B.B.E. - Flash
EXTD=YEAR: 1997
EXTT0=
EXTT1=
EXTT2=
EXTT3=
EXTT4=
EXTT5=
EXTT6=
EXTT7=
EXTT8=
EXTT9=
EXTT10=
EXTT11=
EXTT12=
EXTT13=
EXTT14=
EXTT15=
EXTT16=
EXTT17=
EXTT18=
EXTT19=
PLAYORDER=
